0
SECTION
2
HEADER
9
$INSUNITS
70
4
9
$ACADVER
1
AC1014
9
$HANDSEED
5
FFFF
0
ENDSEC
0
SECTION
2
TABLES
0
TABLE
2
VPORT
5
8
100
AcDbSymbolTable
0
ENDTAB
0
TABLE
2
LTYPE
5
5
100
AcDbSymbolTable
0
LTYPE
5
14
100
AcDbSymbolTableRecord
100
AcDbLinetypeTableRecord
2
BYBLOCK
70
0
0
LTYPE
5
15
100
AcDbSymbolTableRecord
100
AcDbLinetypeTableRecord
2
BYLAYER
70
0
0
ENDTAB
0
TABLE
2
LAYER
5
2
100
AcDbSymbolTable
70
2
0
LAYER
5
50
100
AcDbSymbolTableRecord
100
AcDbLayerTableRecord
2
0
70
0
6
CONTINUOUS
0
ENDTAB
0
TABLE
2
STYLE
5
3
100
AcDbSymbolTable
70
1
0
STYLE
5
11
100
AcDbSymbolTableRecord
100
AcDbTextStyleTableRecord
2
STANDARD
70
0
0
ENDTAB
0
TABLE
2
VIEW
5
6
100
AcDbSymbolTable
70
0
0
ENDTAB
0
TABLE
2
UCS
5
7
100
AcDbSymbolTable
70
0
0
ENDTAB
0
TABLE
2
APPID
5
9
100
AcDbSymbolTable
70
2
0
APPID
5
12
100
AcDbSymbolTableRecord
100
AcDbRegAppTableRecord
2
ACAD
70
0
0
ENDTAB
0
TABLE
2
DIMSTYLE
5
A
100
AcDbSymbolTable
70
1
0
ENDTAB
0
TABLE
2
BLOCK_RECORD
5
1
100
AcDbSymbolTable
70
1
0
BLOCK_RECORD
5
1F
100
AcDbSymbolTableRecord
100
AcDbBlockTableRecord
2
*MODEL_SPACE
0
BLOCK_RECORD
5
1B
100
AcDbSymbolTableRecord
100
AcDbBlockTableRecord
2
*PAPER_SPACE
0
ENDTAB
0
ENDSEC
0
SECTION
2
BLOCKS
0
BLOCK
5
20
100
AcDbEntity
100
AcDbBlockBegin
2
*MODEL_SPACE
0
ENDBLK
5
21
100
AcDbEntity
100
AcDbBlockEnd
0
BLOCK
5
1C
100
AcDbEntity
100
AcDbBlockBegin
2
*PAPER_SPACE
0
ENDBLK
5
1D
100
AcDbEntity
100
AcDbBlockEnd
0
ENDSEC
0
SECTION
2
ENTITIES
0
LWPOLYLINE
5
100
100
AcDbEntity
8
0
100
AcDbPolyline
90
32
70
1
43
0.0
10
211.07902630823617
20
-105.25411693149226
42
-0.051864131439279898
10
262.01739055859025
20
-99.844427624114701
10
341.40744339388135
20
-99.844427624114743
42
0.41421356237309503
10
343.90744339388135
20
-97.344427624114743
10
343.90744339388135
20
0.045572375885069571
42
0.41421356237309503
10
341.40744339388135
20
2.5455723758850697
10
154.90744339388132
20
2.5455723758850701
10
154.90744339388132
20
7.5455723758850706
10
341.40744339388135
20
7.5455723758850706
42
-0.41421356237309503
10
348.90744339388135
20
0.045572375885072347
10
348.90744339388135
20
-97.344427624114743
42
-0.41421356237309648
10
341.40744339388135
20
-104.84442762411476
10
262.01739055859025
20
-104.84442762411476
42
0.054038532619112803
10
211.07902630823699
20
-110.3658199058203
10
169.53568074768828
20
-119.19613059844004
42
-0.10510423526567818
10
131.85310753201995
20
-119.19613059844012
10
86.043252566061312
20
-109.45894533627356
42
0.054370989033317954
10
43.73322348464211
20
-104.84442762411493
10
2.6074433938812929
20
-104.84442762411493
42
-0.41421356237309431
10
-4.8925566061186885
20
-97.344427624114928
10
-4.8925566061186938
20
-1.3270634591222574e-15
42
-0.41598899337191547
10
2.607443393881308
20
7.5455723758850706
10
139.10744339388131
20
7.5455723758850706
10
139.10744339388131
20
2.5455723758850697
10
2.6074433938813062
20
2.5455723758850697
42
0.41421356237309498
10
0.10744339388130558
20
0.045572375885072347
10
0.10744339388129076
20
-97.344427624114928
42
0.41421356237309498
10
2.6074433938812902
20
-99.844427624114928
10
43.733223484642181
20
-99.844427624114914
42
-0.053062319575286815
10
86.043252566061312
20
-104.34724236194839
10
131.85310753201995
20
-114.08442762411497
42
0.10510423526567765
10
169.53568074768828
20
-114.08442762411494
0
CIRCLE
5
101
100
AcDbEntity
8
0
100
AcDbCircle
10
2.6074433938813062
20
5.0455723758850706
30
0
40
1.1000000000000001
210
0
220
0
230
1
0
CIRCLE
5
102
100
AcDbEntity
8
0
100
AcDbCircle
10
341.40744339388135
20
5.0455723758850706
30
0
40
1.1000000000000001
210
0
220
0
230
1
0
CIRCLE
5
103
100
AcDbEntity
8
0
100
AcDbCircle
10
341.40744339388135
20
-102.34442762411474
30
0
40
1.1000000000000001
210
0
220
0
230
1
0
CIRCLE
5
104
100
AcDbEntity
8
0
100
AcDbCircle
10
2.6074433938812911
20
-102.34442762411493
30
0
40
1.1000000000000001
210
0
220
0
230
1
0
CIRCLE
5
105
100
AcDbEntity
8
0
100
AcDbCircle
10
75.397443393881318
20
5.0455723758850706
30
0
40
1.1000000000000001
210
0
220
0
230
1
0
CIRCLE
5
106
100
AcDbEntity
8
0
100
AcDbCircle
10
230.03744339388135
20
5.0455723758850706
30
0
40
1.1000000000000001
210
0
220
0
230
1
0
CIRCLE
5
107
100
AcDbEntity
8
0
100
AcDbCircle
10
212.59744339388135
20
-107.48721890375214
30
0
40
1.1000000000000001
210
0
220
0
230
1
0
CIRCLE
5
108
100
AcDbEntity
8
0
100
AcDbCircle
10
83.327443393881296
20
-106.32583078932049
30
0
40
1.1000000000000001
210
0
220
0
230
1
0
ENDSEC
0
SECTION
2
OBJECTS
0
DICTIONARY
5
C
100
AcDbDictionary
3
ACAD_GROUP
350
D
3
ACAD_MLINESTYLE
350
17
0
DICTIONARY
5
D
100
AcDbDictionary
0
DICTIONARY
5
1A
330
C
100
AcDbDictionary
0
DICTIONARY
5
17
100
AcDbDictionary
0
ENDSEC
0
EOF
