0
SECTION
2
HEADER
9
$INSUNITS
70
4
9
$ACADVER
1
AC1014
9
$HANDSEED
5
FFFF
0
ENDSEC
0
SECTION
2
TABLES
0
TABLE
2
VPORT
5
8
100
AcDbSymbolTable
0
ENDTAB
0
TABLE
2
LTYPE
5
5
100
AcDbSymbolTable
0
LTYPE
5
14
100
AcDbSymbolTableRecord
100
AcDbLinetypeTableRecord
2
BYBLOCK
70
0
0
LTYPE
5
15
100
AcDbSymbolTableRecord
100
AcDbLinetypeTableRecord
2
BYLAYER
70
0
0
ENDTAB
0
TABLE
2
LAYER
5
2
100
AcDbSymbolTable
70
2
0
LAYER
5
50
100
AcDbSymbolTableRecord
100
AcDbLayerTableRecord
2
0
70
0
6
CONTINUOUS
0
ENDTAB
0
TABLE
2
STYLE
5
3
100
AcDbSymbolTable
70
1
0
STYLE
5
11
100
AcDbSymbolTableRecord
100
AcDbTextStyleTableRecord
2
STANDARD
70
0
0
ENDTAB
0
TABLE
2
VIEW
5
6
100
AcDbSymbolTable
70
0
0
ENDTAB
0
TABLE
2
UCS
5
7
100
AcDbSymbolTable
70
0
0
ENDTAB
0
TABLE
2
APPID
5
9
100
AcDbSymbolTable
70
2
0
APPID
5
12
100
AcDbSymbolTableRecord
100
AcDbRegAppTableRecord
2
ACAD
70
0
0
ENDTAB
0
TABLE
2
DIMSTYLE
5
A
100
AcDbSymbolTable
70
1
0
ENDTAB
0
TABLE
2
BLOCK_RECORD
5
1
100
AcDbSymbolTable
70
1
0
BLOCK_RECORD
5
1F
100
AcDbSymbolTableRecord
100
AcDbBlockTableRecord
2
*MODEL_SPACE
0
BLOCK_RECORD
5
1B
100
AcDbSymbolTableRecord
100
AcDbBlockTableRecord
2
*PAPER_SPACE
0
ENDTAB
0
ENDSEC
0
SECTION
2
BLOCKS
0
BLOCK
5
20
100
AcDbEntity
100
AcDbBlockBegin
2
*MODEL_SPACE
0
ENDBLK
5
21
100
AcDbEntity
100
AcDbBlockEnd
0
BLOCK
5
1C
100
AcDbEntity
100
AcDbBlockBegin
2
*PAPER_SPACE
0
ENDBLK
5
1D
100
AcDbEntity
100
AcDbBlockEnd
0
ENDSEC
0
SECTION
2
ENTITIES
0
CIRCLE
5
100
100
AcDbEntity
8
0
100
AcDbCircle
10
212.59744339388135
20
-107.48721890375214
30
0
40
1.6000000000000101
210
0
220
0
230
1
0
LWPOLYLINE
5
101
100
AcDbEntity
8
0
100
AcDbPolyline
90
16
70
1
43
0.0
10
169.53568074768828
20
-119.19613059844004
42
-0.10510423526567818
10
131.85310753201995
20
-119.19613059844012
10
86.043252566061312
20
-109.45894533627356
42
0.054370989033317954
10
43.73322348464211
20
-104.84442762411493
10
2.6074433938812929
20
-104.84442762411493
42
-0.41421356237309431
10
-4.8925566061186885
20
-97.344427624114928
10
-4.8925566061186938
20
-1.3270634591222574e-15
42
-0.41598899337191547
10
2.607443393881308
20
7.5455723758850706
10
139.10744339388131
20
7.5455723758850706
10
154.90744339388132
20
7.5455723758850706
10
341.40744339388135
20
7.5455723758850706
42
-0.41421356237309503
10
348.90744339388135
20
0.045572375885072347
10
348.90744339388135
20
-97.344427624114743
42
-0.41421356237309648
10
341.40744339388135
20
-104.84442762411476
10
262.01739055859025
20
-104.84442762411476
42
0.054038532619112803
10
211.07902630823699
20
-110.3658199058203
0
CIRCLE
5
102
100
AcDbEntity
8
0
100
AcDbCircle
10
83.327443393881296
20
-106.32583078932049
30
0
40
1.6000000000000005
210
0
220
0
230
1
0
CIRCLE
5
103
100
AcDbEntity
8
0
100
AcDbCircle
10
2.6074433938812911
20
-102.34442762411493
30
0
40
1.6000000000000001
210
0
220
0
230
1
0
CIRCLE
5
104
100
AcDbEntity
8
0
100
AcDbCircle
10
75.397443393881318
20
5.0455723758850706
30
0
40
1.1000000000000001
210
0
220
0
230
1
0
CIRCLE
5
105
100
AcDbEntity
8
0
100
AcDbCircle
10
230.03744339388135
20
5.0455723758850706
30
0
40
1.6000000000000101
210
0
220
0
230
1
0
CIRCLE
5
106
100
AcDbEntity
8
0
100
AcDbCircle
10
341.40744339388135
20
5.0455723758850706
30
0
40
1.600000000000001
210
0
220
0
230
1
0
CIRCLE
5
107
100
AcDbEntity
8
0
100
AcDbCircle
10
341.40744339388135
20
-102.34442762411474
30
0
40
1.6000000000000218
210
0
220
0
230
1
0
CIRCLE
5
108
100
AcDbEntity
8
0
100
AcDbCircle
10
2.6074433938813062
20
5.0455723758850706
30
0
40
1.1000000000000001
210
0
220
0
230
1
0
LWPOLYLINE
5
109
100
AcDbEntity
8
0
100
AcDbPolyline
90
8
70
1
43
0.0
10
56.257443393881275
20
-16.474427624114927
10
68.257443393881289
20
-16.474427624114927
42
0.4142135623730957
10
69.257443393881289
20
-15.474427624114927
10
69.257443393881289
20
-3.4744276241149286
42
0.41421356237309664
10
68.257443393881289
20
-2.474427624114929
10
56.257443393881275
20
-2.474427624114929
42
0.41421356237309698
10
55.257443393881275
20
-3.4744276241149308
10
55.257443393881275
20
-15.474427624114927
42
0.4142135623730957
0
LWPOLYLINE
5
110
100
AcDbEntity
8
0
100
AcDbPolyline
90
8
70
1
43
0.0
10
37.20744339388127
20
-18.614427624114928
42
-0.4142135623730957
10
36.207443393881277
20
-17.614427624114928
10
36.207443393881277
20
-5.6144276241149305
42
-0.41421356237309698
10
37.20744339388127
20
-4.6144276241149287
10
49.207443393881285
20
-4.614427624114926
42
-0.41421356237309664
10
50.207443393881277
20
-5.6144276241149278
10
50.207443393881277
20
-17.614427624114928
42
-0.4142135623730957
10
49.207443393881285
20
-18.614427624114928
0
LWPOLYLINE
5
111
100
AcDbEntity
8
0
100
AcDbPolyline
90
8
70
1
43
0.0
10
17.157443393881273
20
-5.6144276241149305
42
-0.41421356237309698
10
18.15744339388127
20
-4.6144276241149287
10
30.15744339388128
20
-4.614427624114926
42
-0.41421356237309664
10
31.157443393881277
20
-5.6144276241149278
10
31.157443393881277
20
-17.614427624114928
42
-0.4142135623730957
10
30.15744339388128
20
-18.614427624114928
10
18.15744339388127
20
-18.614427624114928
42
-0.4142135623730957
10
17.157443393881273
20
-17.614427624114928
0
LWPOLYLINE
5
112
100
AcDbEntity
8
0
100
AcDbPolyline
90
8
70
1
43
0.0
10
17.757443393881275
20
-24.664427624114929
42
-0.41421356237309631
10
18.757443393881271
20
-23.664427624114929
10
30.757443393881282
20
-23.664427624114929
42
-0.41421356237309631
10
31.757443393881278
20
-24.664427624114929
10
31.757443393881278
20
-36.664427624114929
42
-0.41421356237309503
10
30.757443393881282
20
-37.664427624114929
10
18.757443393881271
20
-37.664427624114929
42
-0.41421356237309503
10
17.757443393881275
20
-36.664427624114929
0
LWPOLYLINE
5
113
100
AcDbEntity
8
0
100
AcDbPolyline
90
8
70
1
43
0.0
10
41.56744339388127
20
-24.664427624114929
42
-0.41421356237309631
10
42.56744339388127
20
-23.664427624114929
10
54.56744339388127
20
-23.664427624114929
42
-0.41421356237309631
10
55.567443393881277
20
-24.664427624114929
10
55.567443393881277
20
-36.664427624114929
42
-0.41421356237309503
10
54.567443393881277
20
-37.664427624114929
10
42.56744339388127
20
-37.664427624114929
42
-0.41421356237309503
10
41.56744339388127
20
-36.664427624114929
0
LWPOLYLINE
5
114
100
AcDbEntity
8
0
100
AcDbPolyline
90
8
70
1
43
0.0
10
29.457443393881281
20
-42.714427624114926
42
-0.41421356237309764
10
30.457443393881277
20
-43.714427624114933
10
30.457443393881277
20
-55.714427624114933
42
-0.41421356237309503
10
29.457443393881281
20
-56.714427624114933
10
17.45744339388127
20
-56.714427624114933
42
-0.41421356237309503
10
16.457443393881274
20
-55.714427624114933
10
16.457443393881274
20
-43.714427624114933
42
-0.41421356237309764
10
17.45744339388127
20
-42.714427624114926
0
LWPOLYLINE
5
115
100
AcDbEntity
8
0
100
AcDbPolyline
90
8
70
1
43
0.0
10
42.65744339388128
20
-43.714427624114933
42
-0.41421356237309764
10
43.65744339388128
20
-42.714427624114926
10
55.657443393881287
20
-42.714427624114926
42
-0.41421356237309764
10
56.65744339388128
20
-43.714427624114933
10
56.65744339388128
20
-55.714427624114933
42
-0.41421356237309503
10
55.657443393881287
20
-56.714427624114933
10
43.65744339388128
20
-56.714427624114933
42
-0.41421356237309503
10
42.65744339388128
20
-55.714427624114933
0
LWPOLYLINE
5
116
100
AcDbEntity
8
0
100
AcDbPolyline
90
8
70
1
43
0.0
10
17.057443393881275
20
-62.76442762411493
42
-0.41421356237309764
10
18.057443393881272
20
-61.76442762411493
10
30.057443393881282
20
-61.76442762411493
42
-0.41421356237309764
10
31.057443393881279
20
-62.76442762411493
10
31.057443393881279
20
-74.76442762411493
42
-0.41421356237309503
10
30.057443393881282
20
-75.76442762411493
10
18.057443393881272
20
-75.76442762411493
42
-0.41421356237309503
10
17.057443393881275
20
-74.76442762411493
0
LWPOLYLINE
5
117
100
AcDbEntity
8
0
100
AcDbPolyline
90
8
70
1
43
0.0
10
62.007443393881289
20
-74.76442762411493
10
62.007443393881289
20
-62.76442762411493
42
0.41421356237309764
10
61.007443393881289
20
-61.76442762411493
10
49.007443393881275
20
-61.76442762411493
42
0.41421356237309764
10
48.007443393881282
20
-62.76442762411493
10
48.007443393881282
20
-74.76442762411493
42
0.41421356237309503
10
49.007443393881275
20
-75.76442762411493
10
61.007443393881289
20
-75.76442762411493
42
0.41421356237309503
0
LWPOLYLINE
5
118
100
AcDbEntity
8
0
100
AcDbPolyline
90
8
70
1
43
0.0
10
22.917443393881282
20
-80.814427624114927
42
-0.41421356237309503
10
23.917443393881278
20
-81.814427624114927
10
23.917443393881278
20
-93.814427624114941
42
-0.41421356237309503
10
22.917443393881282
20
-94.814427624114927
10
10.917443393881271
20
-94.814427624114927
42
-0.41421356237309503
10
9.9174433938812747
20
-93.814427624114941
10
9.9174433938812747
20
-81.814427624114927
42
-0.41421356237309503
10
10.917443393881271
20
-80.814427624114927
0
LWPOLYLINE
5
119
100
AcDbEntity
8
0
100
AcDbPolyline
90
8
70
1
43
0.0
10
75.413175953754163
20
-19.033990684345003
10
87.150947162559817
20
-21.528930974158115
42
0.41421356237309381
10
88.337006454111361
20
-20.758695064242076
10
90.831946743924462
20
-9.0209238554364806
42
0.41421356237309315
10
90.061710834008409
20
-7.8348645638848868
10
78.323939625202726
20
-5.3399242740717749
42
0.41421356237309415
10
77.137880333651196
20
-6.110160183987805
10
74.642940043838095
20
-17.847931392793416
42
0.41421356237309553
0
LWPOLYLINE
5
120
100
AcDbEntity
8
0
100
AcDbPolyline
90
8
70
1
43
0.0
10
106.96700645411136
20
-24.718695064242073
10
109.46194674392446
20
-12.980923855436481
42
0.41421356237309331
10
108.6917108340084
20
-11.794864563884888
10
96.953939625202722
20
-9.2999242740717758
42
0.41421356237309415
10
95.767880333651192
20
-10.070160183987806
10
93.272940043838091
20
-21.807931392793417
42
0.41421356237309293
10
94.043175953754158
20
-22.993990684345004
10
105.78094716255981
20
-25.488930974158119
42
0.41421356237309503
0
LWPOLYLINE
5
121
100
AcDbEntity
8
0
100
AcDbPolyline
90
8
70
1
43
0.0
10
125.59700645411135
20
-28.678695064242071
42
-0.41421356237309503
10
124.41094716255981
20
-29.448930974158117
10
112.67317595375414
20
-26.953990684345015
42
-0.41421356237309198
10
111.90294004383809
20
-25.767931392793422
10
114.39788033365119
20
-14.030160183987807
42
-0.41421356237309415
10
115.58393962520272
20
-13.259924274071777
10
127.3217108340084
20
-15.754864563884885
42
-0.41421356237309331
10
128.09194674392447
20
-16.940923855436484
0
LWPOLYLINE
5
122
100
AcDbEntity
8
0
100
AcDbPolyline
90
8
70
1
43
0.0
10
131.30317595375413
20
-30.913990684345009
10
143.0409471625598
20
-33.408930974158118
42
0.41421356237309503
10
144.22700645411135
20
-32.638695064242071
10
146.72194674392446
20
-20.900923855436481
42
0.4142135623730922
10
145.9517108340084
20
-19.714864563884888
10
134.21393962520273
20
-17.219924274071776
42
0.41421356237309415
10
133.02788033365118
20
-17.990160183987808
10
130.5329400438381
20
-29.727931392793423
42
0.41421356237309198
0
LWPOLYLINE
5
123
100
AcDbEntity
8
0
100
AcDbPolyline
90
8
70
1
43
0.0
10
63.857880333651195
20
-22.760160183987807
10
61.362940043838094
20
-34.497931392793419
42
0.41421356237309609
10
62.133175953754154
20
-35.683990684345005
10
73.870947162559816
20
-38.178930974158114
42
0.41421356237309381
10
75.05700645411136
20
-37.408695064242075
10
77.551946743924461
20
-25.670923855436484
42
0.41421356237309348
10
76.781710834008393
20
-24.484864563884887
10
65.043939625202725
20
-21.989924274071775
42
0.41421356237309503
0
LWPOLYLINE
5
124
100
AcDbEntity
8
0
100
AcDbPolyline
90
8
70
1
43
0.0
10
80.763175953754157
20
-39.643990684344999
10
92.500947162559811
20
-42.138930974158114
42
0.41421356237309248
10
93.687006454111369
20
-41.368695064242075
10
96.18194674392447
20
-29.630923855436482
42
0.41421356237309348
10
95.411710834008403
20
-28.444864563884884
10
83.673939625202735
20
-25.949924274071776
42
0.41421356237309503
10
82.487880333651191
20
-26.720160183987804
10
79.992940043838104
20
-38.457931392793412
42
0.41421356237309293
0
LWPOLYLINE
5
125
100
AcDbEntity
8
0
100
AcDbPolyline
90
8
70
1
43
0.0
10
112.32700645411136
20
-45.328695064242069
10
114.82194674392446
20
-33.590923855436479
42
0.41421356237308837
10
114.05171083400842
20
-32.404864563884885
10
102.31393962520272
20
-29.909924274071777
42
0.41421356237309398
10
101.12788033365121
20
-30.680160183987802
10
98.632940043838104
20
-42.417931392793413
42
0.41421356237309503
10
99.403175953754157
20
-43.603990684345
10
111.1409471625598
20
-46.098930974158122
42
0.41421356237309503
0
LWPOLYLINE
5
126
100
AcDbEntity
8
0
100
AcDbPolyline
90
8
70
1
43
0.0
10
132.68171083400841
20
-36.364864563884879
42
-0.41421356237309348
10
133.45194674392448
20
-37.55092385543648
10
130.95700645411137
20
-49.28869506424207
42
-0.41421356237309248
10
129.77094716255982
20
-50.058930974158109
10
118.03317595375415
20
-47.563990684345008
42
-0.41421356237309198
10
117.2629400438381
20
-46.377931392793414
10
119.7578803336512
20
-34.640160183987803
42
-0.41421356237309503
10
120.94393962520273
20
-33.869924274071778
0
LWPOLYLINE
5
127
100
AcDbEntity
8
0
100
AcDbPolyline
90
8
70
1
43
0.0
10
62.833175953754157
20
-55.313990684345001
10
74.570947162559818
20
-57.808930974158116
42
0.41421356237309248
10
75.757006454111362
20
-57.038695064242077
10
78.251946743924464
20
-45.30092385543648
42
0.41421356237309453
10
77.481710834008396
20
-44.114864563884886
10
65.743939625202728
20
-41.619924274071778
42
0.41421356237309503
10
64.557880333651198
20
-42.390160183987803
10
62.062940043838097
20
-54.127931392793414
42
0.41421356237309503
0
LWPOLYLINE
5
128
100
AcDbEntity
8
0
100
AcDbPolyline
90
8
70
1
43
0.0
10
94.387006454111372
20
-60.998695064242071
10
96.881946743924473
20
-49.260923855436481
42
0.41421356237309248
10
96.111710834008406
20
-48.074864563884887
10
84.373939625202738
20
-45.579924274071779
42
0.41421356237309503
10
83.187880333651208
20
-46.350160183987803
10
80.692940043838092
20
-58.087931392793415
42
0.41421356237309398
10
81.46317595375416
20
-59.273990684345002
10
93.200947162559814
20
-61.76893097415811
42
0.41421356237309248
0
LWPOLYLINE
5
129
100
AcDbEntity
8
0
100
AcDbPolyline
90
8
70
1
43
0.0
10
100.10317595375415
20
-63.233990684345002
10
111.84094716255981
20
-65.728930974158118
42
0.41421356237309503
10
113.02700645411136
20
-64.958695064242079
10
115.52194674392446
20
-53.220923855436482
42
0.41421356237308943
10
114.75171083400841
20
-52.034864563884888
10
103.01393962520272
20
-49.53992427407178
42
0.41421356237309398
10
101.82788033365121
20
-50.310160183987804
10
99.332940043838107
20
-62.047931392793416
42
0.41421356237309503
0
LWPOLYLINE
5
130
100
AcDbEntity
8
0
100
AcDbPolyline
90
8
70
1
43
0.0
10
133.3817108340084
20
-55.994864563884889
42
-0.41421356237309248
10
134.15194674392447
20
-57.180923855436482
10
131.65700645411138
20
-68.918695064242073
42
-0.41421356237309248
10
130.47094716255981
20
-69.688930974158112
10
118.73317595375414
20
-67.19399068434501
42
-0.41421356237309198
10
117.9629400438381
20
-66.007931392793409
10
120.4578803336512
20
-54.270160183987805
42
-0.41421356237309503
10
121.64393962520273
20
-53.499924274071773
0
LWPOLYLINE
5
131
100
AcDbEntity
8
0
100
AcDbPolyline
90
8
70
1
43
0.0
10
138.73171083400842
20
-76.604864563884888
10
126.99393962520274
20
-74.109924274071773
42
0.41421356237309503
10
125.80788033365121
20
-74.880160183987797
10
123.3129400438381
20
-86.617931392793409
42
0.41421356237309398
10
124.08317595375416
20
-87.803990684344996
10
135.82094716255983
20
-90.298930974158111
42
0.41421356237309503
10
137.00700645411138
20
-89.528695064242072
10
139.50194674392446
20
-77.790923855436475
42
0.41421356237309248
0
LWPOLYLINE
5
132
100
AcDbEntity
8
0
100
AcDbPolyline
90
8
70
1
43
0.0
10
105.45317595375415
20
-83.843990684345016
10
117.19094716255981
20
-86.338930974158103
42
0.41421356237309503
10
118.37700645411135
20
-85.568695064242064
10
120.87194674392447
20
-73.830923855436481
42
0.41421356237308943
10
120.10171083400841
20
-72.64486456388488
10
108.36393962520273
20
-70.149924274071779
42
0.41421356237309398
10
107.17788033365122
20
-70.920160183987804
10
104.6829400438381
20
-82.657931392793415
42
0.41421356237309104
0
LWPOLYLINE
5
133
100
AcDbEntity
8
0
100
AcDbPolyline
90
8
70
1
43
0.0
10
88.537880333651202
20
-66.96016018398781
42
-0.41421356237309503
10
89.723939625202732
20
-66.189924274071771
10
101.46171083400841
20
-68.684864563884886
42
-0.41421356237309248
10
102.23194674392447
20
-69.870923855436487
10
99.737006454111366
20
-81.60869506424207
42
-0.41421356237308998
10
98.550947162559822
20
-82.378930974158095
10
86.813175953754168
20
-79.883990684345022
42
-0.41421356237309398
10
86.042940043838101
20
-78.697931392793407
0
LWPOLYLINE
5
134
100
AcDbEntity
8
0
100
AcDbPolyline
90
8
70
1
43
0.0
10
81.107006454111357
20
-77.648695064242077
10
83.601946743924458
20
-65.910923855436479
42
0.41421356237308943
10
82.831710834008419
20
-64.724864563884893
10
71.093939625202736
20
-62.229924274071777
42
0.41421356237309503
10
69.907880333651192
20
-63.000160183987802
10
67.412940043838091
20
-74.737931392793413
42
0.41421356237309503
10
68.183175953754159
20
-75.923990684345
10
79.920947162559813
20
-78.418930974158116
42
0.41421356237308998
0
LWPOLYLINE
5
135
100
AcDbEntity
8
0
100
AcDbPolyline
90
8
70
1
43
0.0
10
80.981710834008425
20
-83.804864563884891
10
69.243939625202728
20
-81.30992427407179
42
0.41421356237309614
10
68.057880333651198
20
-82.0801601839878
10
65.562940043838097
20
-93.817931392793412
42
0.41421356237309304
10
66.333175953754164
20
-95.003990684345013
10
78.070947162559818
20
-97.4989309741581
42
0.41421356237308743
10
79.257006454111362
20
-96.728695064242075
10
81.751946743924464
20
-84.990923855436478
42
0.41421356237308488
0
LWPOLYLINE
5
136
100
AcDbEntity
8
0
100
AcDbPolyline
90
8
70
1
43
0.0
10
96.613175953754165
20
-101.44399068434501
10
108.35094716255982
20
-103.93893097415811
42
0.41421356237308488
10
109.53700645411135
20
-103.16869506424209
10
112.03194674392448
20
-91.430923855436475
42
0.41421356237308488
10
111.26171083400843
20
-90.244864563884889
10
99.523939625202743
20
-87.749924274071788
42
0.41421356237309614
10
98.337880333651214
20
-88.520160183987798
10
95.842940043838098
20
-100.25793139279342
42
0.41421356237308998
0
LWPOLYLINE
5
137
100
AcDbEntity
8
0
100
AcDbPolyline
90
8
70
1
43
0.0
10
126.91317595375416
20
-107.88399068434501
10
138.65094716255982
20
-110.37893097415811
42
0.41421356237308488
10
139.83700645411136
20
-109.60869506424208
10
142.33194674392448
20
-97.870923855436473
42
0.41421356237308488
10
141.56171083400841
20
-96.684864563884901
10
129.82393962520274
20
-94.189924274071785
42
0.41421356237309614
10
128.6378803336512
20
-94.960160183987796
10
126.1429400438381
20
-106.69793139279342
42
0.41421356237308998
0
LWPOLYLINE
5
138
100
AcDbEntity
8
0
100
AcDbPolyline
90
8
70
1
43
0.0
10
33.497443393881277
20
-77.76442762411493
10
38.497443393881319
20
-77.76442762411493
42
0.41421356237309503
10
39.497443393881312
20
-76.76442762411493
10
39.497443393881312
20
-63.764427624114923
42
0.41421356237309503
10
38.497443393881319
20
-62.764427624114923
10
33.937443393881281
20
-62.764427624114923
42
0.41421356237309503
10
32.497443393881284
20
-64.204427624114928
10
32.497443393881284
20
-76.76442762411493
42
0.41421356237309503
0
LWPOLYLINE
5
139
100
AcDbEntity
8
0
100
AcDbPolyline
90
8
70
1
43
0.0
10
8.6174433938812758
20
-64.204427624114928
10
8.6174433938812758
20
-76.76442762411493
42
0.41421356237309503
10
9.6174433938812722
20
-77.76442762411493
10
14.617443393881279
20
-77.76442762411493
42
0.41421356237309503
10
15.617443393881276
20
-76.76442762411493
10
15.617443393881276
20
-63.764427624114923
42
0.41421356237309503
10
14.617443393881279
20
-62.764427624114923
10
10.057443393881279
20
-62.764427624114923
42
0.41421356237309503
0
LWPOLYLINE
5
140
100
AcDbEntity
8
0
100
AcDbPolyline
90
8
70
1
43
0.0
10
317.30744339388127
20
-2.4744276241149388
10
329.30744339388127
20
-2.4744276241149499
42
-0.41421356237312817
10
330.30744339388127
20
-3.4744276241149352
10
330.30744339388127
20
-15.474427624114934
42
-0.41421356237312756
10
329.30744339388127
20
-16.474427624114934
10
317.30744339388127
20
-16.474427624114927
42
-0.41421356237308854
10
316.30744339388121
20
-15.474427624114934
10
316.30744339388121
20
-3.474427624114933
42
-0.41421356237308915
0
LWPOLYLINE
5
141
100
AcDbEntity
8
0
100
AcDbPolyline
90
8
70
1
43
0.0
10
321.46744339388124
20
-21.524427624114942
10
333.46744339388124
20
-21.524427624114956
42
-0.41421356237312756
10
334.46744339388124
20
-22.524427624114939
10
334.46744339388124
20
-34.524427624114935
42
-0.41421356237312884
10
333.46744339388124
20
-35.524427624114942
10
321.46744339388124
20
-35.524427624114935
42
-0.41421356237308982
10
320.46744339388118
20
-34.524427624114935
10
320.46744339388118
20
-22.524427624114935
42
-0.41421356237308854
0
LWPOLYLINE
5
142
100
AcDbEntity
8
0
100
AcDbPolyline
90
8
70
1
43
0.0
10
337.53744339388118
20
-40.574427624114961
42
-0.41421356237312623
10
338.53744339388129
20
-41.574427624114932
10
338.53744339388129
20
-53.574427624114939
42
-0.41421356237312884
10
337.53744339388129
20
-54.574427624114946
10
325.53744339388123
20
-54.574427624114932
42
-0.41421356237308982
10
324.53744339388123
20
-53.574427624114939
10
324.53744339388123
20
-41.574427624114932
42
-0.41421356237308982
10
325.53744339388123
20
-40.574427624114939
0
LWPOLYLINE
5
143
100
AcDbEntity
8
0
100
AcDbPolyline
90
8
70
1
43
0.0
10
338.91744339388129
20
-81.814427624114941
10
338.91744339388129
20
-93.814427624114956
42
-0.41421356237312623
10
337.91744339388123
20
-94.814427624114956
10
325.91744339388129
20
-94.814427624114927
42
-0.4142135623730846
10
324.91744339388117
20
-93.814427624114956
10
324.91744339388117
20
-81.814427624114941
42
-0.41421356237308982
10
325.91744339388123
20
-80.814427624114956
10
337.91744339388117
20
-80.81442762411497
42
-0.41421356237312623
0
LWPOLYLINE
5
144
100
AcDbEntity
8
0
100
AcDbPolyline
90
8
70
1
43
0.0
10
267.47744339388123
20
-62.764427624114944
10
267.47744339388129
20
-74.764427624114958
42
-0.41421356237312623
10
266.47744339388123
20
-75.764427624114944
10
254.4774433938812
20
-75.76442762411493
42
-0.4142135623730846
10
253.47744339388117
20
-74.764427624114958
10
253.47744339388117
20
-62.764427624114944
42
-0.41421356237308982
10
254.4774433938812
20
-61.764427624114944
10
266.47744339388123
20
-61.764427624114965
42
-0.41421356237312623
0
LWPOLYLINE
5
145
100
AcDbEntity
8
0
100
AcDbPolyline
90
8
70
1
43
0.0
10
234.42744339388116
20
-74.764427624114958
10
234.42744339388116
20
-62.764427624114944
42
-0.41421356237308982
10
235.42744339388119
20
-61.764427624114944
10
247.42744339388122
20
-61.764427624114965
42
-0.41421356237312623
10
248.42744339388122
20
-62.764427624114944
10
248.42744339388128
20
-74.764427624114958
42
-0.41421356237312623
10
247.42744339388122
20
-75.764427624114944
10
235.42744339388119
20
-75.76442762411493
42
-0.4142135623730846
0
LWPOLYLINE
5
146
100
AcDbEntity
8
0
100
AcDbPolyline
90
8
70
1
43
0.0
10
319.86744339388122
20
-62.764427624114944
10
319.86744339388122
20
-74.764427624114958
42
-0.41421356237312623
10
318.86744339388122
20
-75.764427624114944
10
306.86744339388122
20
-75.76442762411493
42
-0.4142135623730846
10
305.86744339388122
20
-74.764427624114958
10
305.86744339388122
20
-62.764427624114944
42
-0.41421356237308982
10
306.86744339388122
20
-61.764427624114944
10
318.86744339388122
20
-61.764427624114965
42
-0.41421356237312623
0
LWPOLYLINE
5
147
100
AcDbEntity
8
0
100
AcDbPolyline
90
8
70
1
43
0.0
10
279.67744339388116
20
-74.764427624114958
10
279.67744339388116
20
-62.764427624114944
42
-0.41421356237308982
10
280.67744339388122
20
-61.764427624114944
10
292.67744339388122
20
-61.764427624114965
42
-0.41421356237312623
10
293.67744339388128
20
-62.764427624114944
10
293.67744339388128
20
-74.764427624114958
42
-0.41421356237312623
10
292.67744339388122
20
-75.764427624114944
10
280.67744339388122
20
-75.76442762411493
42
-0.4142135623730846
0
LWPOLYLINE
5
148
100
AcDbEntity
8
0
100
AcDbPolyline
90
8
70
1
43
0.0
10
272.83744339388124
20
-43.71442762411494
10
272.8374433938813
20
-55.714427624114947
42
-0.41421356237312623
10
271.83744339388124
20
-56.714427624114947
10
259.83744339388119
20
-56.714427624114933
42
-0.4142135623730846
10
258.83744339388119
20
-55.714427624114947
10
258.83744339388119
20
-43.71442762411494
42
-0.41421356237308982
10
259.83744339388119
20
-42.714427624114947
10
271.83744339388124
20
-42.714427624114961
42
-0.41421356237312623
0
LWPOLYLINE
5
149
100
AcDbEntity
8
0
100
AcDbPolyline
90
8
70
1
43
0.0
10
240.7874433938812
20
-56.714427624114933
42
-0.4142135623730846
10
239.78744339388118
20
-55.714427624114947
10
239.78744339388118
20
-43.71442762411494
42
-0.41421356237308982
10
240.7874433938812
20
-42.714427624114947
10
252.78744339388123
20
-42.714427624114961
42
-0.41421356237312623
10
253.78744339388123
20
-43.71442762411494
10
253.78744339388129
20
-55.714427624114947
42
-0.41421356237312623
10
252.78744339388123
20
-56.714427624114947
0
LWPOLYLINE
5
150
100
AcDbEntity
8
0
100
AcDbPolyline
90
8
70
1
43
0.0
10
287.81744339388121
20
-94.814427624114927
42
-0.4142135623730846
10
286.81744339388115
20
-93.814427624114956
10
286.81744339388115
20
-81.814427624114941
42
-0.41421356237308982
10
287.81744339388121
20
-80.814427624114956
10
299.81744339388121
20
-80.81442762411497
42
-0.41421356237312623
10
300.81744339388126
20
-81.814427624114941
10
300.81744339388126
20
-93.814427624114956
42
-0.41421356237312623
10
299.81744339388121
20
-94.814427624114956
0
LWPOLYLINE
5
151
100
AcDbEntity
8
0
100
AcDbPolyline
90
8
70
1
43
0.0
10
306.86744339388122
20
-94.814427624114927
42
-0.4142135623730846
10
305.86744339388122
20
-93.814427624114956
10
305.86744339388122
20
-81.814427624114941
42
-0.41421356237308982
10
306.86744339388122
20
-80.814427624114956
10
318.86744339388122
20
-80.81442762411497
42
-0.41421356237312623
10
319.86744339388122
20
-81.814427624114941
10
319.86744339388122
20
-93.814427624114956
42
-0.41421356237312623
10
318.86744339388122
20
-94.814427624114956
0
LWPOLYLINE
5
152
100
AcDbEntity
8
0
100
AcDbPolyline
90
8
70
1
43
0.0
10
282.26744339388125
20
-23.664427624114968
42
-0.41421356237312623
10
283.26744339388125
20
-24.664427624114946
10
283.26744339388131
20
-36.664427624114957
42
-0.41421356237312623
10
282.26744339388125
20
-37.66442762411495
10
270.26744339388119
20
-37.664427624114936
42
-0.4142135623730846
10
269.26744339388119
20
-36.664427624114957
10
269.26744339388119
20
-24.664427624114946
42
-0.41421356237308982
10
270.26744339388119
20
-23.66442762411495
0
LWPOLYLINE
5
153
100
AcDbEntity
8
0
100
AcDbPolyline
90
8
70
1
43
0.0
10
251.21744339388118
20
-23.66442762411495
10
263.21744339388124
20
-23.664427624114968
42
-0.41421356237312623
10
264.21744339388124
20
-24.664427624114946
10
264.21744339388124
20
-36.664427624114957
42
-0.41421356237312623
10
263.21744339388124
20
-37.66442762411495
10
251.21744339388118
20
-37.664427624114936
42
-0.4142135623730846
10
250.21744339388118
20
-36.664427624114957
10
250.21744339388118
20
-24.664427624114946
42
-0.41421356237308982
0
LWPOLYLINE
5
154
100
AcDbEntity
8
0
100
AcDbPolyline
90
8
70
1
43
0.0
10
285.14744339388125
20
-18.614427624114928
42
-0.41421356237308854
10
284.14744339388119
20
-17.614427624114935
10
284.14744339388119
20
-5.6144276241149331
42
-0.41421356237308915
10
285.14744339388125
20
-4.6144276241149385
10
297.14744339388125
20
-4.6144276241149491
42
-0.41421356237312817
10
298.1474433938813
20
-5.6144276241149349
10
298.1474433938813
20
-17.614427624114935
42
-0.41421356237312756
10
297.14744339388125
20
-18.614427624114935
0
LWPOLYLINE
5
155
100
AcDbEntity
8
0
100
AcDbPolyline
90
8
70
1
43
0.0
10
255.57744339388123
20
-5.6144276241149331
42
-0.41421356237308915
10
256.57744339388125
20
-4.6144276241149385
10
268.57744339388125
20
-4.6144276241149491
42
-0.41421356237312817
10
269.57744339388125
20
-5.6144276241149349
10
269.57744339388125
20
-17.614427624114935
42
-0.41421356237312756
10
268.57744339388125
20
-18.614427624114935
10
256.57744339388125
20
-18.614427624114928
42
-0.41421356237308854
10
255.57744339388123
20
-17.614427624114935
0
LWPOLYLINE
5
156
100
AcDbEntity
8
0
100
AcDbPolyline
90
8
70
1
43
0.0
10
249.52744339388124
20
-16.474427624114934
10
237.52744339388124
20
-16.474427624114927
42
-0.41421356237308854
10
236.52744339388121
20
-15.474427624114934
10
236.52744339388121
20
-3.474427624114933
42
-0.41421356237308915
10
237.52744339388124
20
-2.4744276241149388
10
249.52744339388124
20
-2.4744276241149499
42
-0.41421356237312817
10
250.52744339388127
20
-3.4744276241149352
10
250.52744339388127
20
-15.474427624114934
42
-0.41421356237312756
0
LWPOLYLINE
5
157
100
AcDbEntity
8
0
100
AcDbPolyline
90
8
70
1
43
0.0
10
232.16744339388123
20
-36.604427624114926
42
-0.41421356237308982
10
231.1674433938812
20
-35.604427624114933
10
231.1674433938812
20
-23.60442762411493
42
-0.41421356237308854
10
232.16744339388123
20
-22.604427624114937
10
244.16744339388123
20
-22.604427624114951
42
-0.41421356237312756
10
245.16744339388126
20
-23.604427624114933
10
245.16744339388126
20
-35.604427624114933
42
-0.41421356237312884
10
244.16744339388123
20
-36.604427624114933
0
LWPOLYLINE
5
158
100
AcDbEntity
8
0
100
AcDbPolyline
90
8
70
1
43
0.0
10
215.38317595375412
20
-5.8548645638848278
10
227.12094716255976
20
-3.3599242740717288
42
-0.41421356237309381
10
228.3070064541113
20
-4.1301601839877726
10
230.80194674392442
20
-15.867931392793416
42
-0.41421356237309931
10
230.03171083400829
20
-17.053990684345038
10
218.29393962520265
20
-19.548930974158139
42
-0.41421356237309581
10
217.10788033365111
20
-18.778695064242125
10
214.61294004383799
20
-7.0409238554364917
42
-0.41421356237309093
0
LWPOLYLINE
5
159
100
AcDbEntity
8
0
100
AcDbPolyline
90
8
70
1
43
0.0
10
199.66393962520266
20
-23.508930974158137
42
-0.41421356237309659
10
198.47788033365111
20
-22.738695064242123
10
195.982940043838
20
-11.00092385543649
42
-0.41421356237309093
10
196.75317595375412
20
-9.8148645638848269
10
208.49094716255976
20
-7.3199242740717283
42
-0.41421356237309381
10
209.67700645411131
20
-8.0901601839877717
10
212.17194674392442
20
-19.827931392793413
42
-0.41421356237309931
10
211.4017108340083
20
-21.013990684345035
0
LWPOLYLINE
5
160
100
AcDbEntity
8
0
100
AcDbPolyline
90
8
70
1
43
0.0
10
193.53194674392441
20
-23.787931392793418
42
-0.41421356237309931
10
192.76171083400828
20
-24.97399068434504
10
181.02393962520264
20
-27.468930974158141
42
-0.41421356237309503
10
179.83788033365113
20
-26.698695064242131
10
177.34294004383798
20
-14.960923855436494
42
-0.41421356237309093
10
178.11317595375411
20
-13.774864563884829
10
189.85094716255975
20
-11.279924274071734
42
-0.41421356237309381
10
191.03700645411129
20
-12.050160183987774
0
LWPOLYLINE
5
161
100
AcDbEntity
8
0
100
AcDbPolyline
90
8
70
1
43
0.0
10
159.48317595375411
20
-17.73486456388483
10
171.22094716255975
20
-15.239924274071733
42
-0.41421356237309381
10
172.4070064541113
20
-16.010160183987775
10
174.90194674392441
20
-27.747931392793419
42
-0.41421356237309931
10
174.13171083400829
20
-28.933990684345041
10
162.39393962520265
20
-31.428930974158142
42
-0.41421356237309659
10
161.20788033365113
20
-30.658695064242124
10
158.71294004383802
20
-18.920923855436492
42
-0.41421356237309093
0
LWPOLYLINE
5
162
100
AcDbEntity
8
0
100
AcDbPolyline
90
8
70
1
43
0.0
10
155.84788033365112
20
-51.268695064242124
10
153.352940043838
20
-39.530923855436491
42
-0.41421356237309043
10
154.1231759537541
20
-38.344864563884826
10
165.86094716255974
20
-35.849924274071732
42
-0.41421356237309248
10
167.04700645411128
20
-36.620160183987771
10
169.5419467439244
20
-48.357931392793404
42
-0.41421356237309959
10
168.77171083400827
20
-49.54399068434504
10
157.03393962520263
20
-52.038930974158141
42
-0.41421356237309814
0
LWPOLYLINE
5
163
100
AcDbEntity
8
0
100
AcDbPolyline
90
8
70
1
43
0.0
10
188.17194674392439
20
-44.397931392793417
42
-0.41421356237309903
10
187.40171083400827
20
-45.583990684345039
10
175.66393962520263
20
-48.078930974158141
42
-0.41421356237309503
10
174.47788033365111
20
-47.30869506424213
10
171.98294004383797
20
-35.57092385543649
42
-0.41421356237309043
10
172.75317595375409
20
-34.384864563884825
10
184.49094716255973
20
-31.889924274071735
42
-0.41421356237309248
10
185.67700645411128
20
-32.66016018398777
0
LWPOLYLINE
5
164
100
AcDbEntity
8
0
100
AcDbPolyline
90
8
70
1
43
0.0
10
204.31700645411129
20
-28.700160183987773
10
206.81194674392441
20
-40.437931392793409
42
-0.41421356237309903
10
206.04171083400828
20
-41.623990684345031
10
194.30393962520264
20
-44.118930974158133
42
-0.41421356237309503
10
193.1178803336511
20
-43.348695064242122
10
190.62294004383801
20
-31.610923855436489
42
-0.41421356237309148
10
191.39317595375411
20
-30.424864563884828
10
203.13094716255975
20
-27.929924274071727
42
-0.41421356237309503
0
LWPOLYLINE
5
165
100
AcDbEntity
8
0
100
AcDbPolyline
90
8
70
1
43
0.0
10
211.7478803336511
20
-39.388695064242121
10
209.25294004383801
20
-27.650923855436492
42
-0.41421356237309148
10
210.02317595375411
20
-26.464864563884831
10
221.76094716255975
20
-23.96992427407173
42
-0.41421356237309381
10
222.94700645411129
20
-24.740160183987769
10
225.4419467439244
20
-36.477931392793415
42
-0.41421356237309931
10
224.67171083400828
20
-37.663990684345038
10
212.93393962520264
20
-40.158930974158139
42
-0.41421356237309659
0
LWPOLYLINE
5
166
100
AcDbEntity
8
0
100
AcDbPolyline
90
8
70
1
43
0.0
10
217.87294004383796
20
-45.150923855436496
42
-0.41421356237309148
10
218.64317595375408
20
-43.964864563884831
10
230.38094716255972
20
-41.46992427407173
42
-0.41421356237309248
10
231.56700645411127
20
-42.240160183987769
10
234.06194674392438
20
-53.977931392793408
42
-0.41421356237309959
10
233.29171083400826
20
-55.163990684345038
10
221.55393962520262
20
-57.658930974158139
42
-0.41421356237309814
10
220.3678803336511
20
-56.888695064242121
0
LWPOLYLINE
5
167
100
AcDbEntity
8
0
100
AcDbPolyline
90
8
70
1
43
0.0
10
214.66171083400826
20
-59.123990684345031
10
202.92393962520262
20
-61.618930974158133
42
-0.41421356237309503
10
201.73788033365111
20
-60.848695064242122
10
199.24294004383796
20
-49.110923855436496
42
-0.41421356237309148
10
200.01317595375409
20
-47.924864563884825
10
211.75094716255973
20
-45.429924274071723
42
-0.41421356237309503
10
212.93700645411127
20
-46.200160183987776
10
215.43194674392439
20
-57.937931392793409
42
-0.41421356237309903
0
LWPOLYLINE
5
168
100
AcDbEntity
8
0
100
AcDbPolyline
90
8
70
1
43
0.0
10
180.60294004383795
20
-53.07092385543649
42
-0.41421356237308943
10
181.37317595375407
20
-51.884864563884825
10
193.11094716255974
20
-49.389924274071731
42
-0.41421356237309248
10
194.29700645411128
20
-50.16016018398777
10
196.79194674392437
20
-61.897931392793417
42
-0.41421356237309903
10
196.02171083400827
20
-63.083990684345039
10
184.28393962520261
20
-65.578930974158141
42
-0.41421356237309503
10
183.09788033365109
20
-64.80869506424213
0
LWPOLYLINE
5
169
100
AcDbEntity
8
0
100
AcDbPolyline
90
8
70
1
43
0.0
10
175.66700645411129
20
-54.120160183987771
10
178.16194674392437
20
-65.857931392793404
42
-0.41421356237309959
10
177.39171083400828
20
-67.043990684345033
10
165.65393962520261
20
-69.538930974158134
42
-0.41421356237309814
10
164.4678803336511
20
-68.768695064242124
10
161.97294004383798
20
-57.030923855436491
42
-0.41421356237309148
10
162.74317595375408
20
-55.844864563884826
10
174.48094716255974
20
-53.349924274071732
42
-0.41421356237309248
0
LWPOLYLINE
5
170
100
AcDbEntity
8
0
100
AcDbPolyline
90
8
70
1
43
0.0
10
227.93171083400824
20
-75.773990684345037
10
216.1939396252026
20
-78.268930974158138
42
-0.41421356237309814
10
215.00788033365109
20
-77.498695064242128
10
212.51294004383794
20
-65.760923855436488
42
-0.41421356237309148
10
213.28317595375407
20
-64.57486456388483
10
225.02094716255971
20
-62.079924274071729
42
-0.41421356237309248
10
226.20700645411125
20
-62.850160183987768
10
228.70194674392437
20
-74.587931392793408
42
-0.41421356237309959
0
LWPOLYLINE
5
171
100
AcDbEntity
8
0
100
AcDbPolyline
90
8
70
1
43
0.0
10
209.30171083400825
20
-79.733990684345031
10
197.56393962520261
20
-82.228930974158132
42
-0.41421356237309503
10
196.37788033365109
20
-81.458695064242121
10
193.88294004383795
20
-69.720923855436496
42
-0.41421356237309148
10
194.65317595375407
20
-68.534864563884824
10
206.39094716255971
20
-66.039924274071723
42
-0.41421356237309503
10
207.57700645411126
20
-66.810160183987776
10
210.07194674392437
20
-78.547931392793402
42
-0.41421356237309903
0
LWPOLYLINE
5
172
100
AcDbEntity
8
0
100
AcDbPolyline
90
8
70
1
43
0.0
10
175.24294004383793
20
-73.68092385543649
42
-0.41421356237308943
10
176.01317595375406
20
-72.494864563884832
10
187.75094716255973
20
-69.999924274071731
42
-0.41421356237309248
10
188.93700645411127
20
-70.77016018398777
10
191.43194674392436
20
-82.507931392793409
42
-0.41421356237309903
10
190.66171083400826
20
-83.693990684345039
10
178.92393962520259
20
-86.18893097415814
42
-0.41421356237309503
10
177.73788033365108
20
-85.418695064242129
0
LWPOLYLINE
5
173
100
AcDbEntity
8
0
100
AcDbPolyline
90
8
70
1
43
0.0
10
159.10788033365108
20
-89.378695064242123
10
156.61294004383797
20
-77.640923855436498
42
-0.41421356237309148
10
157.38317595375406
20
-76.454864563884826
10
169.12094716255973
20
-73.959924274071739
42
-0.41421356237309248
10
170.30700645411127
20
-74.730160183987778
10
172.80194674392436
20
-86.467931392793403
42
-0.41421356237310009
10
172.03171083400827
20
-87.653990684345047
10
160.2939396252026
20
-90.148930974158148
42
-0.4142135623731012
0
LWPOLYLINE
5
174
100
AcDbEntity
8
0
100
AcDbPolyline
90
8
70
1
43
0.0
10
227.87700645411127
20
-81.980160183987763
10
230.37194674392438
20
-93.717931392793403
42
-0.41421356237310414
10
229.60171083400826
20
-94.903990684345047
10
217.86393962520265
20
-97.398930974158148
42
-0.4142135623731012
10
216.6778803336511
20
-96.628695064242123
10
214.18294004383799
20
-84.890923855436498
42
-0.41421356237309287
10
214.95317595375408
20
-83.70486456388484
10
226.6909471625597
20
-81.209924274071739
42
-0.41421356237308998
0
LWPOLYLINE
5
175
100
AcDbEntity
8
0
100
AcDbPolyline
90
8
70
1
43
0.0
10
192.33171083400828
20
-102.82399068434503
10
180.59393962520261
20
-105.31893097415815
42
-0.4142135623731012
10
179.40788033365109
20
-104.54869506424211
10
176.91294004383798
20
-92.810923855436499
42
-0.41421356237309287
10
177.68317595375407
20
-91.624864563884842
10
189.42094716255968
20
-89.12992427407174
42
-0.41421356237308998
10
190.60700645411129
20
-89.900160183987765
10
193.10194674392437
20
-101.6379313927934
42
-0.41421356237310414
0
LWPOLYLINE
5
176
100
AcDbEntity
8
0
100
AcDbPolyline
90
8
70
1
43
0.0
10
294.08744339388124
20
-23.664427624114943
10
306.08744339388124
20
-23.66442762411495
42
-0.41421356237312884
10
307.08744339388124
20
-24.664427624114936
10
307.08744339388124
20
-36.664427624114936
42
-0.41421356237312623
10
306.08744339388124
20
-37.664427624114936
10
294.08744339388124
20
-37.664427624114929
42
-0.41421356237308721
10
293.08744339388119
20
-36.664427624114936
10
293.08744339388119
20
-24.664427624114936
42
-0.41421356237308982
0
LWPOLYLINE
5
177
100
AcDbEntity
8
0
100
AcDbPolyline
90
8
70
1
43
0.0
10
303.78744339388129
20
-43.71442762411494
10
303.78744339388129
20
-55.71442762411494
42
-0.41421356237312623
10
302.78744339388129
20
-56.71442762411494
10
290.78744339388123
20
-56.714427624114933
42
-0.41421356237308721
10
289.78744339388123
20
-55.71442762411494
10
289.78744339388123
20
-43.71442762411494
42
-0.41421356237308982
10
290.78744339388123
20
-42.714427624114947
10
302.78744339388129
20
-42.714427624114954
42
-0.41421356237312884
0
LWPOLYLINE
5
178
100
AcDbEntity
8
0
100
AcDbPolyline
90
8
70
1
43
0.0
10
197.26068953111738
20
-85.418854402102255
10
192.36995152744842
20
-86.45841285619106
42
0.41421356237308637
10
191.59971561753238
20
-87.644472147742476
10
194.30256759816331
20
-100.36039095728219
42
0.4142135623731103
10
195.48862688971482
20
-101.13062686719817
10
200.37936489338378
20
-100.0910684131094
42
0.41421356237310847
10
201.14960080329979
20
-98.905009121557868
10
198.44674882266889
20
-86.189090312018166
42
0.41421356237309354
0
LWPOLYLINE
5
179
100
AcDbEntity
8
0
100
AcDbPolyline
90
8
70
1
43
0.0
10
177.79143609777663
20
-103.86994029828591
42
-0.41421356237310847
10
177.02120018786053
20
-105.05599958983746
10
172.13046218419157
20
-106.09555804392622
42
-0.4142135623731103
10
170.94440289264008
20
-105.32532213401025
10
168.2415509120093
20
-92.609403324470492
42
-0.41421356237308637
10
169.0117868219252
20
-91.423344032919118
10
173.90252482559413
20
-90.383785578830185
42
-0.41421356237309354
10
175.08858411714567
20
-91.154021488746224
0
LWPOLYLINE
5
180
100
AcDbEntity
8
0
100
AcDbPolyline
90
8
70
1
43
0.0
10
111.92368659932497
20
-103.6759995897489
42
-0.41421356237449003
10
111.15345068985579
20
-102.48994029889366
10
113.85630267060883
20
-89.774021488730853
42
-0.41421356237332252
10
115.0423619621435
20
-89.003785578825116
10
119.93309996538038
20
-90.043344032822034
42
-0.41421356237309176
10
120.70333587565617
20
-91.229403324927588
10
118.00048389509789
20
-103.94532213412539
42
-0.41421356237146856
10
116.81442460368474
20
-104.71555804395622
0
LWPOLYLINE
5
181
100
AcDbEntity
8
0
100
AcDbPolyline
90
8
70
1
43
0.0
10
88.56552189380173
20
-98.711068413020783
42
-0.41421356237449114
10
87.79528598433258
20
-97.525009122165557
10
90.498137965085576
20
-84.80909031200278
42
-0.41421356237332146
10
91.684197256620251
20
-84.038854402097044
10
96.574935259857142
20
-85.078412856093962
42
-0.41421356237308671
10
97.345171170132915
20
-86.264472148199502
10
94.64231918957465
20
-98.980390957397304
42
-0.41421356237146745
10
93.456259898161505
20
-99.750626867228135
0
LWPOLYLINE
5
182
100
AcDbEntity
8
0
100
AcDbPolyline
90
8
70
1
43
0.0
10
305.2274433939005
20
-44.714427624106683
10
305.22744339390806
20
-57.714427624702381
42
0.41421356237309503
10
306.22744339332138
20
-58.714427624114165
10
311.22744339398031
20
-58.714427624110293
42
0.41421356237307944
10
312.22744339378698
20
-57.714427624221678
10
312.22744339369649
20
-44.714427624582711
42
0.41421356237309764
10
311.22744339322873
20
-43.714427624116425
10
306.22744339388788
20
-43.71442762412029
42
0.41421356237310025
0
LWPOLYLINE
5
183
100
AcDbEntity
8
0
100
AcDbPolyline
90
8
70
1
43
0.0
10
288.34744339384213
20
-57.714427624401317
10
288.34744339383019
20
-44.714427624601839
42
0.41421356241146851
10
287.34744339329814
20
-43.714427624134814
10
282.34744339393023
20
-43.714427624138644
42
0.41421356237287132
10
281.34744339394564
20
-44.714427624124255
10
281.34744339395269
20
-57.714427624701436
42
0.41421356236454421
10
282.34744339336152
20
-58.714427624101866
10
287.34744339397815
20
-58.714427624098278
42
0.41421356231904805
0
LWPOLYLINE
5
184
100
AcDbEntity
8
0
100
AcDbPolyline
90
8
70
1
43
0.0
10
306.58744339388124
20
-19.614427624232626
10
306.58744339388141
20
-6.6144276245819276
42
0.41421356237309892
10
305.58744339341439
20
-5.6144276241143301
10
300.58744339385601
20
-5.614427624114259
42
0.41421356237332235
10
299.58744339387039
20
-6.6144276241011424
10
299.58744339388045
20
-19.614427624736233
42
0.4142135623744907
10
300.5874433932986
20
-20.614427624147559
10
305.58744339399891
20
-20.614427624119884
42
0.41421356237146717
0
LWPOLYLINE
5
185
100
AcDbEntity
8
0
100
AcDbPolyline
90
8
70
1
43
0.0
10
275.70744339387051
20
-6.6144276242328459
10
275.70744339388062
20
-19.614427624867965
42
0.41421356237447898
10
276.70744339329866
20
-20.614427624279763
10
281.7074433939992
20
-20.614427624252084
42
0.4142135623713859
10
282.70744339388153
20
-19.614427624364225
10
282.70744339388125
20
-6.614427624713545
42
0.41421356237307683
10
281.70744339341428
20
-5.6144276242465185
10
276.70744339385612
20
-5.6144276242464475
42
0.41421356237332135
0
ENDSEC
0
SECTION
2
OBJECTS
0
DICTIONARY
5
C
100
AcDbDictionary
3
ACAD_GROUP
350
D
3
ACAD_MLINESTYLE
350
17
0
DICTIONARY
5
D
100
AcDbDictionary
0
DICTIONARY
5
1A
330
C
100
AcDbDictionary
0
DICTIONARY
5
17
100
AcDbDictionary
0
ENDSEC
0
EOF
